<?xml version="1.0" standalone="no"?>
<!DOCTYPE svg PUBLIC "-//W3C//DTD SVG 20010904//EN"
 "http://www.w3.org/TR/2001/REC-SVG-20010904/DTD/svg10.dtd">
<svg version="1.0" xmlns="http://www.w3.org/2000/svg"
 width="640.000000pt" height="369.000000pt" viewBox="0 0 640.000000 369.000000"
 preserveAspectRatio="xMidYMid meet">

<g transform="translate(0.000000,369.000000) scale(0.100000,-0.100000)"
fill="#000000" stroke="none">
<path d="M2690 3634 c-587 -49 -1035 -163 -1465 -373 -523 -257 -872 -607
-1000 -1006 -286 -889 609 -1756 2055 -1989 237 -39 333 -47 620 -53 376 -8
655 15 995 82 953 188 1678 681 1881 1279 93 272 71 580 -59 844 -273 552
-993 991 -1887 1152 -278 50 -421 62 -765 65 -181 1 -350 1 -375 -1z m815
-128 c510 -64 922 -184 1291 -375 473 -246 776 -565 892 -941 24 -78 26 -99
26 -265 0 -167 -2 -186 -27 -268 -148 -481 -632 -887 -1347 -1129 -885 -300
-2007 -274 -2856 67 -590 237 -1010 609 -1147 1015 -87 259 -68 511 58 765
300 607 1173 1052 2245 1144 163 14 712 6 865 -13z"/>
<path d="M2666 3452 c-42 -3 -46 -5 -31 -16 20 -15 20 -13 29 -203 7 -130 6
-142 -11 -153 -14 -8 9 -10 97 -5 63 4 116 8 117 9 1 1 5 22 8 46 l7 45 -21
-32 c-26 -41 -49 -53 -104 -53 l-45 0 -6 85 c-20 281 -20 254 5 263 31 12 13
18 -45 14z"/>
<path d="M3024 3441 c-41 -25 -69 -96 -68 -176 0 -116 49 -195 121 -195 80 0
122 66 123 193 0 155 -80 236 -176 178z m80 -1 c39 -15 56 -68 56 -177 0 -134
-32 -195 -95 -179 -42 11 -59 52 -63 159 -6 130 14 184 75 206 1 1 13 -3 27
-9z"/>
<path d="M3370 3423 c-62 -44 -96 -130 -87 -223 11 -121 76 -173 173 -138 30
11 33 15 39 71 6 49 11 60 29 65 19 6 18 7 -9 13 -47 10 -85 10 -85 -1 0 -5 7
-10 15 -10 25 0 20 -95 -6 -121 -24 -24 -65 -20 -87 9 -52 68 -32 268 32 321
8 7 30 11 48 9 28 -3 36 -10 55 -48 l22 -45 1 51 c0 47 -2 52 -22 53 -13 0
-39 3 -58 6 -25 4 -42 1 -60 -12z"/>
<path d="M3680 3390 c0 -5 14 -10 30 -10 38 0 38 1 3 -198 l-27 -154 -40 7
c-27 4 -38 3 -31 -4 13 -13 175 -40 175 -30 0 5 -7 9 -16 9 -8 0 -23 4 -33 10
-17 8 -17 15 -6 77 7 37 21 112 30 166 l17 97 36 0 c19 0 33 3 29 6 -4 4 -137
32 -164 34 -2 0 -3 -4 -3 -10z"/>
<path d="M2155 3373 c-71 -15 -131 -40 -67 -28 24 5 34 3 38 -9 13 -33 72
-321 67 -328 -2 -5 -15 -8 -28 -8 -13 0 -27 -4 -30 -10 -8 -13 -4 -13 93 6 81
16 103 31 38 26 l-33 -3 -32 158 c-18 87 -34 162 -35 168 0 5 14 14 32 19 17
6 32 14 32 18 0 4 -1 8 -2 7 -2 0 -34 -7 -73 -16z"/>
<path d="M4023 3295 c-12 -8 -27 -31 -33 -49 -14 -44 3 -82 59 -127 22 -17 47
-47 56 -65 15 -31 15 -37 -1 -69 -37 -79 -150 -41 -157 53 -3 41 -13 41 -21 1
-9 -47 -7 -81 4 -74 6 4 26 -3 45 -15 69 -43 149 -20 169 48 14 49 -1 81 -65
144 -67 66 -75 99 -36 136 45 42 110 16 128 -51 9 -35 13 -38 19 -22 15 43 21
77 11 70 -6 -3 -28 3 -50 15 -48 24 -98 26 -128 5z"/>
<path d="M1728 3258 c-21 -6 -38 -15 -38 -20 0 -6 7 -7 15 -4 19 7 19 6 76
-182 42 -139 42 -142 23 -158 -19 -15 -19 -15 1 -11 11 2 64 17 117 33 105 31
107 34 88 94 -8 25 -8 25 -9 2 -1 -34 -50 -78 -95 -86 -21 -4 -40 -5 -43 -2
-3 3 -27 76 -54 163 -46 146 -48 159 -32 171 20 15 6 15 -49 0z"/>
<path d="M4326 3188 c-30 -38 -25 -50 7 -20 26 24 75 29 83 9 3 -8 -24 -81
-58 -163 -55 -129 -67 -149 -86 -148 -12 0 -22 -3 -22 -6 0 -9 102 -52 108
-45 3 2 -3 7 -12 11 -9 3 -16 11 -16 17 0 15 120 299 131 311 5 5 19 2 33 -8
20 -13 26 -25 26 -53 0 -46 17 -33 22 16 l3 35 -89 38 c-50 21 -93 38 -97 38
-4 0 -19 -14 -33 -32z"/>
<path d="M1548 3191 c-39 -17 -53 -37 -18 -26 17 5 27 -9 75 -111 30 -64 54
-119 52 -121 -2 -2 -60 40 -129 92 -121 92 -125 95 -156 84 -34 -12 -45 -35
-12 -24 17 5 26 -8 71 -102 89 -191 94 -204 78 -213 -28 -18 0 -20 35 -4 38
19 49 36 17 27 -10 -3 -23 1 -27 9 -10 16 -124 259 -124 265 0 2 33 -21 73
-52 191 -148 218 -167 223 -162 3 3 -26 74 -65 157 -74 159 -79 175 -58 183 6
2 10 6 7 9 -3 3 -22 -2 -42 -11z"/>
<path d="M2785 3054 c-867 -57 -1569 -392 -1775 -848 -43 -94 -60 -173 -60
-277 0 -118 20 -202 70 -304 344 -697 1784 -1038 2950 -699 496 144 865 397
1017 698 97 192 96 415 -2 608 -206 406 -802 713 -1560 803 -127 15 -520 27
-640 19z m530 -99 c825 -72 1477 -412 1626 -847 29 -86 36 -222 15 -312 -147
-625 -1330 -1045 -2471 -876 -759 112 -1321 452 -1431 865 -18 65 -17 216 0
283 105 394 641 731 1356 852 99 17 227 31 375 43 112 9 379 5 530 -8z"/>
<path d="M1550 2241 l0 -41 -110 0 c-91 0 -110 -3 -110 -15 0 -12 19 -15 110
-15 l110 0 0 -36 c0 -34 1 -35 33 -32 28 3 32 7 35 36 l3 32 60 0 59 0 0 -36
c0 -34 1 -35 33 -32 28 3 32 7 35 36 l3 32 120 0 c65 0 119 3 119 8 0 12 -57
62 -72 62 -7 0 -19 -9 -26 -20 -10 -17 -23 -20 -77 -20 -56 0 -65 3 -65 18 0
10 5 23 11 29 13 13 5 18 -43 27 l-38 7 0 -41 0 -40 -60 0 c-53 0 -60 2 -60
20 0 10 7 23 17 28 18 11 12 14 -54 27 -33 7 -33 6 -33 -34z"/>
<path d="M3304 2173 l1 -98 -32 -3 c-18 -2 -33 1 -33 6 0 21 24 78 37 89 13
10 9 14 -22 27 -21 9 -41 16 -46 16 -4 0 -10 -26 -14 -57 -3 -32 -13 -98 -22
-146 -8 -48 -13 -90 -11 -92 3 -3 19 27 36 65 l31 71 38 -3 38 -3 3 -72 3 -71
-85 -32 -85 -32 20 -40 20 -39 45 33 c25 18 48 36 50 40 3 5 12 8 21 8 14 0
15 -18 12 -142 l-4 -143 30 0 30 0 3 172 2 173 30 15 c35 18 52 41 24 33 -10
-3 -27 -9 -36 -13 -16 -6 -18 0 -18 54 l0 61 57 0 57 0 -29 30 -29 30 -21 -20
c-12 -11 -24 -20 -28 -20 -12 0 -8 158 4 166 16 9 -1 22 -42 29 l-36 7 1 -99z"/>
<path d="M4423 2253 c9 -11 17 -32 17 -48 0 -16 7 -37 17 -47 15 -17 12 -18
-80 -18 -93 0 -97 1 -97 22 0 38 -11 13 -66 -149 -75 -218 -90 -247 -134 -253
l-35 -6 30 -14 c29 -14 30 -19 35 -90 5 -72 6 -75 31 -78 43 -5 58 19 47 75
-5 26 -7 72 -4 100 7 63 75 355 86 366 4 4 42 7 86 5 l79 -3 -57 -57 c-40 -40
-65 -58 -83 -58 l-25 0 17 -35 c9 -19 24 -35 34 -35 9 0 83 9 164 20 81 11
149 20 150 20 1 0 8 -13 15 -29 21 -51 80 -45 80 8 0 28 -26 59 -66 79 -25 13
-104 32 -104 25 0 -2 14 -16 30 -30 17 -13 30 -28 30 -31 0 -4 -57 -6 -127 -4
l-126 3 74 49 c41 27 80 50 88 50 11 0 11 3 1 15 -11 13 4 15 121 15 l134 1
-40 35 -40 35 -18 -25 c-17 -24 -24 -26 -104 -26 -78 0 -83 1 -68 16 37 38 -3
97 -75 110 -34 7 -35 7 -17 -13z"/>
<path d="M2360 2055 l0 -205 23 0 c28 0 47 17 47 42 0 15 9 18 65 18 l65 0 0
-65 0 -65 -140 0 c-118 0 -140 -2 -140 -15 0 -13 22 -15 140 -15 l140 0 0 -70
0 -70 -165 0 c-103 0 -165 -4 -165 -10 0 -6 127 -10 362 -10 l362 0 -34 35
-34 35 -26 -25 c-25 -23 -33 -25 -133 -25 l-107 0 0 70 0 70 140 0 c77 0 140
3 139 8 0 4 -16 20 -35 36 l-35 29 -15 -22 c-14 -19 -24 -21 -105 -21 l-89 0
0 65 0 65 65 0 c59 0 65 -2 65 -20 0 -25 21 -34 55 -26 l25 6 0 159 c0 132 3
160 15 165 24 9 18 21 -27 46 -38 21 -42 22 -53 7 -11 -15 -35 -17 -176 -17
-123 1 -170 4 -189 15 -14 8 -28 14 -32 15 -5 0 -8 -92 -8 -205z m200 90 l0
-65 -65 0 -65 0 0 65 0 65 65 0 65 0 0 -65z m190 0 l0 -66 -62 3 -63 3 -3 48
c-4 64 8 77 74 77 l54 0 0 -65z m-192 -147 l-3 -63 -62 -3 -63 -3 0 66 0 65
65 0 66 0 -3 -62z m192 -3 l0 -66 -62 3 -63 3 -3 63 -3 62 66 0 65 0 0 -65z"/>
<path d="M3534 2233 c-16 -78 -68 -253 -85 -287 -10 -22 -19 -42 -19 -44 0
-15 37 31 72 90 27 46 46 68 59 68 23 0 23 5 0 -61 -30 -89 -70 -161 -114
-206 -50 -52 -41 -55 24 -7 62 45 93 83 131 158 17 34 37 69 46 78 13 16 13
18 -9 27 -22 9 -21 10 14 10 44 1 45 -5 16 -91 -50 -151 -131 -264 -222 -313
-48 -26 -48 -40 0 -20 61 26 129 73 173 122 38 40 130 212 130 242 0 6 5 11
10 11 20 0 10 20 -17 34 l-28 15 34 1 34 0 -6 -130 c-13 -263 -33 -308 -132
-295 -50 7 -54 1 -13 -19 13 -6 29 -24 36 -39 16 -32 23 -33 77 -7 69 33 88
100 101 340 5 87 11 130 21 142 13 15 11 19 -24 42 -33 23 -39 24 -49 11 -9
-12 -35 -15 -123 -15 -61 0 -111 2 -111 5 0 14 54 111 68 121 11 8 6 14 -30
27 -56 22 -57 22 -64 -10z"/>
<path d="M4117 2243 c-4 -3 2 -12 12 -19 10 -8 22 -29 25 -48 8 -41 19 -50 51
-42 45 12 40 77 -8 95 -40 15 -74 21 -80 14z"/>
<path d="M1465 1986 l0 -126 28 0 c21 0 30 6 34 20 5 18 12 21 62 18 l56 -3 3
-37 3 -38 -99 0 c-66 0 -112 5 -136 15 l-36 15 0 -155 c0 -146 1 -155 19 -155
49 0 51 5 51 136 l0 124 100 0 100 0 0 -45 0 -45 -90 0 -90 0 17 -35 c9 -19
21 -35 27 -35 9 0 205 40 273 55 17 4 23 -1 32 -25 12 -36 45 -41 61 -9 9 16
8 26 -4 45 -18 27 -85 64 -116 64 -20 0 -19 -2 7 -25 l28 -24 -42 -1 -43 0 0
40 0 40 105 0 105 0 0 -89 0 -90 -47 -3 c-47 -3 -47 -4 -21 -15 16 -7 30 -23
34 -38 6 -23 10 -25 38 -19 65 14 66 15 66 129 0 58 4 107 10 110 20 12 9 30
-29 52 -39 23 -40 23 -46 3 -6 -18 -15 -20 -111 -20 l-104 0 0 40 0 40 60 0
c46 0 60 -3 60 -14 0 -21 17 -29 46 -22 23 6 24 9 24 96 0 53 4 90 10 90 23 0
7 28 -25 46 -28 15 -37 16 -44 6 -6 -10 -45 -12 -172 -9 -90 2 -173 6 -184 11
-19 7 -20 3 -20 -118z m185 49 c0 -24 -3 -25 -60 -25 -57 0 -60 1 -60 25 0 24
3 25 60 25 57 0 60 -1 60 -25z m180 0 c0 -24 -3 -25 -60 -25 -57 0 -60 1 -60
25 0 24 3 25 60 25 57 0 60 -1 60 -25z m-182 -82 l3 -33 -60 0 -61 0 0 35 0
36 58 -3 c56 -3 57 -3 60 -35z m182 2 l0 -35 -60 0 -60 0 0 35 0 35 60 0 60 0
0 -35z"/>
<path d="M4050 2051 c0 -6 4 -11 9 -11 6 0 16 -21 23 -47 12 -43 16 -48 43
-48 27 0 30 3 33 37 3 29 -1 40 -20 51 -32 20 -88 32 -88 18z"/>
<path d="M4430 1750 l0 -181 33 3 32 3 3 158 c1 93 6 157 12 157 22 0 8 18
-17 24 -16 4 -36 9 -45 12 -17 5 -18 -8 -18 -176z"/>
<path d="M4315 1912 c-3 -3 -5 -42 -5 -87 0 -111 -19 -163 -84 -226 l-51 -51
45 22 c112 56 145 104 156 226 4 43 11 84 16 90 6 8 -4 15 -31 22 -22 5 -43 7
-46 4z"/>
<path d="M4560 1766 c0 -193 -1 -191 109 -191 101 1 122 15 102 70 -9 25 -9
44 -2 72 15 52 6 53 -19 1 -32 -63 -49 -78 -87 -78 l-33 0 0 113 c0 68 4 117
11 124 13 13 6 18 -43 31 l-38 10 0 -152z"/>
<path d="M4734 3027 l29 -25 -83 -134 c-106 -170 -101 -164 -134 -143 -15 10
-29 15 -32 12 -3 -2 29 -26 71 -52 42 -26 78 -45 81 -43 2 3 -7 13 -21 22 -14
9 -25 22 -25 28 0 10 131 228 163 272 13 17 15 17 45 2 60 -31 32 0 -35 39
-83 49 -97 54 -59 22z"/>
<path d="M1125 2960 c-3 -5 22 -85 55 -177 34 -92 59 -178 57 -190 -5 -28 -3
-28 36 -1 31 22 31 22 8 28 -16 4 -28 19 -42 55 -10 28 -19 51 -19 51 0 1 18
14 40 29 l39 27 45 -38 c31 -27 44 -44 40 -56 -7 -23 -1 -23 41 5 37 23 47 42
17 33 -12 -4 -56 29 -154 119 -75 69 -141 125 -147 125 -5 0 -13 -4 -16 -10z
m165 -165 c0 -6 -71 -47 -75 -43 -2 2 -18 41 -35 87 l-30 83 70 -62 c38 -34
70 -63 70 -65z"/>
<path d="M900 2775 c-23 -24 -23 -25 -3 -23 15 2 35 -17 80 -77 74 -101 80
-110 61 -99 -65 39 -178 130 -174 141 8 20 -8 15 -32 -10 -27 -28 -28 -36 -4
-31 23 5 48 -18 103 -96 63 -90 65 -94 43 -81 -65 37 -179 129 -178 144 2 23
-8 21 -34 -6 -23 -24 -30 -43 -12 -32 6 4 78 -42 161 -100 83 -59 153 -104
156 -101 3 2 -25 48 -61 100 -37 53 -64 96 -60 96 4 0 47 -30 96 -66 50 -36
92 -63 95 -60 3 3 -43 71 -102 151 -61 85 -104 153 -101 161 8 22 -8 17 -34
-11z"/>
<path d="M4962 2785 c-47 -21 -127 -107 -147 -159 -22 -57 -14 -89 31 -134 32
-32 38 -34 80 -29 25 2 53 13 63 22 15 17 15 17 -4 10 -11 -5 -39 -10 -62 -13
-35 -3 -46 0 -67 22 -15 14 -26 35 -26 47 0 84 146 229 230 229 51 0 87 -79
60 -131 -19 -34 7 -21 30 16 l21 34 -28 36 c-49 64 -111 80 -181 50z"/>
<path d="M5214 2467 c-28 -24 -29 -29 -31 -115 -1 -105 -10 -126 -57 -142 -81
-26 -127 62 -77 144 31 50 25 48 -69 -22 -3 -2 3 -8 13 -13 9 -6 17 -19 17
-30 0 -28 26 -75 52 -93 45 -32 123 -11 146 39 7 14 12 63 12 109 0 90 9 108
62 121 59 15 102 -77 62 -133 -22 -32 -11 -38 25 -13 24 17 28 26 21 39 -5 9
-11 29 -14 44 -16 76 -106 112 -162 65z"/>
<path d="M1306 1093 l-18 -53 -51 0 -51 0 41 -30 c39 -29 41 -32 31 -63 -23
-76 -25 -74 22 -40 l43 32 43 -30 c24 -16 44 -28 44 -26 0 3 -7 24 -15 47 -8
23 -15 44 -15 46 0 2 18 17 41 33 l40 30 -52 3 -52 3 -17 50 -17 50 -17 -52z"/>
<path d="M4677 1133 c-2 -5 -10 -25 -16 -45 -12 -37 -13 -38 -64 -38 l-52 -1
25 -20 c14 -12 33 -27 42 -33 16 -11 16 -16 2 -55 -8 -24 -13 -46 -10 -48 3
-3 21 7 40 22 l36 28 40 -27 c22 -14 42 -26 44 -26 3 0 -2 21 -11 47 -16 46
-16 46 8 64 70 51 69 48 8 49 l-57 0 -11 45 c-11 45 -16 52 -24 38z"/>
<path d="M3970 816 l-13 -46 -56 0 -56 -1 25 -20 c14 -12 33 -27 44 -34 17
-13 18 -16 2 -61 -9 -26 -16 -49 -16 -51 0 -3 20 10 45 28 l44 32 36 -28 c20
-15 38 -25 41 -23 2 3 -2 24 -11 47 l-14 42 39 27 c22 15 39 30 40 35 0 4 -22
7 -49 7 -48 0 -50 1 -61 38 -18 56 -26 58 -40 8z"/>
<path d="M2110 786 l-13 -46 -56 0 c-54 -1 -55 -1 -35 -18 11 -9 31 -24 44
-33 23 -15 23 -15 7 -64 -10 -27 -17 -50 -17 -52 0 -1 20 12 44 29 l45 31 36
-27 c20 -16 38 -26 41 -24 2 3 -3 24 -11 48 -14 39 -14 45 0 52 8 5 27 20 43
33 l27 24 -52 1 c-51 0 -52 1 -63 38 -18 56 -26 58 -40 8z"/>
<path d="M3006 683 l-17 -52 -52 -3 -51 -3 42 -27 c36 -24 40 -31 33 -50 -4
-13 -11 -36 -15 -51 l-7 -28 43 29 44 30 39 -29 c21 -16 40 -27 42 -26 2 2 -4
24 -12 48 l-16 44 33 27 c18 15 38 28 43 29 6 1 -14 5 -44 8 l-54 6 -17 50
-17 50 -17 -52z"/>
</g>
</svg>
