<?xml version="1.0" standalone="no"?>
<!DOCTYPE svg PUBLIC "-//W3C//DTD SVG 20010904//EN"
 "http://www.w3.org/TR/2001/REC-SVG-20010904/DTD/svg10.dtd">
<svg version="1.0" xmlns="http://www.w3.org/2000/svg"
 width="800.000000pt" height="800.000000pt" viewBox="0 0 800.000000 800.000000"
 preserveAspectRatio="xMidYMid meet">

<g transform="translate(0.000000,800.000000) scale(0.100000,-0.100000)"
fill="#000000" stroke="none">
<path d="M557 7443 c-4 -3 -7 -296 -7 -649 0 -613 1 -644 18 -653 27 -14 1256
-15 1283 -1 19 11 20 19 19 648 -1 427 -5 641 -12 649 -8 10 -148 13 -653 13
-353 0 -645 -3 -648 -7z m1113 -653 l0 -460 -460 0 -460 0 0 460 0 460 460 0
460 0 0 -460z"/>
<path d="M930 6790 l0 -280 280 0 280 0 0 280 0 280 -280 0 -280 0 0 -280z"/>
<path d="M2047 7444 c-4 -4 -7 -90 -7 -191 l0 -183 190 0 190 0 -2 188 -3 187
-181 3 c-99 1 -183 -1 -187 -4z"/>
<path d="M2604 7437 c-3 -8 -4 -52 -2 -98 l3 -84 93 -3 92 -3 0 -89 0 -90 95
0 95 0 0 90 0 90 90 0 90 0 0 -180 0 -180 -277 -2 -278 -3 -3 -92 -3 -93 -179
0 -179 0 -3 93 -3 92 -95 0 -95 0 -3 -371 -2 -371 31 -7 c40 -8 133 -8 153 0
13 5 16 23 16 95 l0 89 85 0 85 0 2 -182 3 -183 93 -3 92 -3 0 -89 0 -89 -92
-3 -93 -3 0 -90 0 -90 98 -3 97 -3 0 90 0 91 183 2 182 3 3 93 3 92 89 0 89 0
3 -92 3 -93 87 -3 87 -3 3 -87 3 -87 98 -3 97 -3 0 91 0 90 275 0 275 0 0 -90
0 -89 92 -3 92 -3 0 -90 1 -90 95 0 95 0 3 93 3 92 179 0 180 0 0 -90 0 -90
-90 0 -90 0 0 -190 0 -190 185 0 185 0 0 -185 0 -184 92 -3 92 -3 0 -85 0 -85
-147 -3 -148 -3 3 -97 3 -97 53 -3 52 -3 0 -90 0 -89 185 0 184 0 3 -92 3 -93
95 0 95 0 3 183 2 182 85 0 85 0 2 -182 3 -183 93 -3 92 -3 0 -84 0 -85 -277
-2 -278 -3 -3 -92 -3 -93 -184 0 -185 0 0 -190 0 -189 91 -3 92 -3 0 -85 0
-85 -272 -3 -271 -2 0 55 0 55 -380 0 -380 0 0 -55 0 -55 -84 0 -85 0 -3 52
-3 53 -192 3 -193 2 0 -55 0 -55 -180 0 -180 0 0 90 0 90 95 0 c52 0 95 2 95
5 0 6 -40 65 -50 75 -8 8 -30 75 -30 93 0 14 -10 17 -60 17 l-60 0 0 -90 0
-91 -86 3 -86 3 -2 85 -1 85 -97 3 -98 3 0 -371 0 -370 -90 0 -90 0 0 89 c0
104 3 101 -105 101 l-74 0 -3 88 -3 87 -95 0 -95 0 -5 -90 c-4 -63 -9 -90 -17
-89 -7 1 -47 2 -89 3 l-77 1 7 70 c11 110 11 110 -95 110 l-89 0 0 90 0 89 93
3 92 3 0 88 0 87 87 0 87 0 3 -87 3 -88 95 0 95 0 3 87 3 87 87 3 87 3 3 98 3
97 -186 0 -186 0 3 88 3 87 183 3 182 2 0 90 0 89 93 3 92 3 3 92 3 92 92 3
92 3 -1 90 0 90 -92 3 -91 3 -3 92 -3 92 -95 0 -95 0 -3 -89 c-2 -65 1 -92 10
-98 7 -4 50 -8 96 -8 l82 0 0 -85 0 -85 -180 0 -180 0 0 90 0 90 -187 2 -188
3 2 70 c4 118 7 115 -97 115 l-90 0 0 90 0 90 370 0 370 0 0 90 0 90 185 0
185 0 0 -185 0 -185 95 0 95 0 0 185 0 185 96 0 c83 0 100 3 127 22 18 12 34
26 35 30 2 4 14 8 27 8 13 0 27 4 30 10 4 6 57 10 126 10 l120 0 -3 58 -3 57
-182 3 -183 2 0 85 c0 47 3 85 8 86 4 0 43 1 87 2 l80 2 3 98 3 97 -95 0 -95
0 -3 -92 -3 -93 -182 -3 -183 -2 0 -90 0 -90 -90 0 -90 0 0 90 0 90 -185 0
-185 0 -2 188 -3 187 -95 0 -95 0 -3 -93 -3 -93 -86 3 -87 3 2 82 c0 57 -3 85
-13 93 -8 6 -46 10 -97 8 l-83 -3 -3 -92 -3 -93 -179 0 -180 0 -2 278 -3 277
-95 0 -95 0 -3 -557 -2 -558 -88 0 c-49 0 -91 -2 -93 -4 -2 -2 -3 -45 -1 -95
l3 -91 95 0 94 0 0 90 0 90 90 0 90 0 0 -180 0 -179 -92 -3 -93 -3 -3 -89 c-2
-65 1 -92 10 -98 7 -4 50 -8 96 -8 l82 0 0 -180 0 -180 -90 0 -89 0 -3 93 -3
92 -93 3 -93 3 1 172 c1 95 1 178 1 185 -1 9 -26 12 -91 12 l-90 0 0 275 0
274 91 3 90 3 0 273 c0 150 -3 277 -6 283 -7 11 -345 12 -363 1 -10 -7 -12
-126 -10 -563 l3 -554 92 -3 93 -3 0 -179 0 -179 -92 -3 -93 -3 0 -465 0 -465
92 -3 92 -3 3 -92 3 -92 92 -3 c79 -2 92 0 95 14 2 9 2 95 0 190 l-3 174 -89
0 -90 0 0 185 0 185 180 0 179 0 3 -92 3 -93 183 -3 182 -2 0 -180 0 -180 -85
0 -84 0 -3 88 -3 87 -98 3 -97 3 2 -468 3 -468 95 0 95 0 3 93 3 92 90 0 90 0
-3 98 -3 97 -85 1 -85 1 -3 86 -3 87 181 0 180 0 0 -90 0 -89 93 -3 92 -3 3
-87 3 -87 -93 -3 -93 -3 -3 -92 -3 -92 -92 -3 -92 -3 -3 -87 -3 -88 -182 -2
-182 -3 0 -95 0 -95 375 0 375 0 0 90 0 90 183 3 182 2 0 -89 0 -90 -92 -3
-93 -3 -3 -92 -3 -92 93 -3 93 -3 3 -272 2 -272 -92 -3 -93 -3 0 -95 0 -95 95
0 95 0 3 93 3 92 84 0 85 0 0 -185 0 -185 -90 0 -90 0 2 -187 3 -188 185 0
185 0 3 277 2 278 90 0 90 0 0 -185 0 -185 95 0 95 0 0 190 0 190 -89 0 c-62
0 -90 4 -93 13 -2 6 -4 46 -3 87 l0 75 185 5 185 5 0 90 0 90 -92 3 -93 3 0
89 0 89 93 3 92 3 0 185 0 185 -92 3 -93 3 0 179 0 180 90 0 90 0 0 -90 0 -90
90 0 89 0 3 -92 3 -93 95 0 95 0 3 93 3 93 87 -3 87 -3 3 -93 3 -92 89 0 90 0
0 -90 0 -89 93 -3 92 -3 3 -87 3 -88 -181 0 -180 0 0 84 c0 47 -4 87 -10 91
-5 3 -88 7 -185 8 -128 2 -179 0 -186 -9 -5 -7 -9 -50 -7 -96 l3 -83 188 -3
188 -2 -3 -88 -3 -87 -185 -5 -185 -5 0 -90 0 -90 185 -5 185 -5 3 -88 3 -87
-96 0 -95 0 0 -185 0 -184 -92 -3 -93 -3 -3 -83 c-2 -55 1 -89 9 -98 9 -11 33
-14 98 -12 l86 3 3 92 3 93 89 0 89 0 3 -93 3 -92 90 0 90 0 3 92 3 93 184 0
185 0 0 185 0 185 185 0 185 0 0 -90 0 -90 95 0 95 0 0 90 0 89 93 3 92 3 3
93 3 93 85 -3 85 -3 2 -275 2 -275 98 -3 97 -3 0 371 0 370 90 0 c105 0 103
-3 98 120 l-3 75 -95 0 -95 0 -3 -93 -3 -93 -87 3 -87 3 0 365 0 365 273 3
272 2 0 -459 0 -460 -87 -3 -88 -3 -3 -97 -3 -98 91 0 90 0 0 -91 0 -90 -87 2
-88 2 -3 -96 -3 -97 91 0 90 0 0 -89 c0 -72 3 -90 16 -95 9 -3 174 -6 368 -6
260 0 355 3 364 12 7 7 12 44 12 95 l0 83 183 2 182 3 3 92 3 93 89 0 90 0 0
90 0 90 90 0 90 0 0 -90 0 -91 98 3 97 3 3 165 c1 91 0 175 -3 188 -5 21 -10
22 -95 22 l-90 0 0 90 0 89 -92 3 -93 3 0 85 0 85 185 5 185 5 0 185 0 185
-92 3 -93 3 0 89 0 89 93 3 92 3 0 650 0 650 -92 3 -93 3 0 89 0 89 93 3 92 3
0 275 0 275 -97 3 -98 3 0 -91 0 -90 -90 0 -90 0 2 178 3 177 93 3 92 3 0 94
0 94 93 3 92 3 0 650 0 650 -187 3 -188 2 0 -180 c0 -99 -1 -183 -2 -187 -2
-5 39 -9 90 -11 l92 -3 0 -274 0 -275 -90 0 -89 0 -3 -92 -3 -93 -87 -3 -88
-3 0 185 0 185 -92 3 -93 3 -3 93 -3 92 -89 0 -89 0 -3 93 -3 92 -92 3 -93 3
0 84 0 85 278 2 277 3 0 95 0 95 -280 0 -280 0 -3 -92 -3 -93 -274 0 -275 0 0
95 0 95 -90 0 -90 0 0 180 0 180 85 0 85 0 0 -89 c0 -81 2 -90 20 -96 22 -7
147 -5 168 3 9 3 12 106 12 468 l0 463 -92 3 -93 3 -5 185 -5 185 -185 0 -185
0 -3 -93 -3 -92 -366 2 -366 3 2 78 c1 49 -2 84 -10 93 -17 20 -351 21 -368 0
-8 -9 -11 -68 -9 -187 l3 -174 90 -5 90 -5 3 -182 2 -183 -185 0 -185 0 0 -90
0 -90 -90 0 -90 0 0 90 0 90 -190 0 -190 0 0 -90 0 -90 -90 0 -90 0 0 90 0 90
-90 0 -90 0 0 90 0 90 90 0 90 0 0 190 0 190 -90 0 -90 0 0 90 c0 105 3 103
-120 98 l-75 -3 -3 -93 -3 -93 -87 3 -87 3 0 80 c0 44 -4 86 -8 93 -12 18
-176 17 -183 -1z m2974 -459 l3 -88 -186 0 c-102 0 -186 -3 -186 -7 -1 -5 -3
-46 -4 -93 l-3 -85 -181 -3 -181 -2 0 178 c0 98 3 182 7 186 4 3 169 5 367 4
l361 -3 3 -87z m-2608 -468 l0 -181 -87 3 -88 3 -1 81 c-1 45 -4 86 -8 93 -5
7 -39 11 -92 11 l-84 0 0 85 0 85 180 0 180 0 0 -180z m1862 93 l3 -88 184 -5
184 -5 0 -85 0 -85 -91 -3 -91 -3 -3 -92 -3 -92 -85 0 -85 0 -3 93 -3 92 -89
0 -89 0 -3 93 -3 92 -92 3 -93 3 0 84 0 85 180 0 179 0 3 -87z m748 2 l0 -85
-185 0 -185 0 0 85 0 85 185 0 185 0 0 -85z m-2980 -185 l0 -90 -90 0 -90 0 0
83 c0 46 3 87 7 90 3 4 44 7 90 7 l83 0 0 -90z m1118 -2 l3 -88 -91 0 -90 0 0
90 0 91 88 -3 87 -3 3 -87z m742 2 l0 -90 -90 0 -90 0 0 83 c0 46 3 87 7 90 3
4 44 7 90 7 l83 0 0 -90z m-1670 -280 l0 -180 -90 0 -90 0 0 180 0 180 90 0
90 0 0 -180z m368 93 l-3 -88 -85 0 -85 0 -3 88 -3 87 91 0 91 0 -3 -87z m370
0 l-3 -88 -85 0 -85 0 -3 88 -3 87 91 0 91 0 -3 -87z m372 -3 l0 -90 -83 0
c-46 0 -86 2 -88 4 -2 2 -3 43 -1 90 l3 86 85 0 84 0 0 -90z m370 6 c0 -55 4
-87 13 -94 12 -10 139 -15 170 -6 14 5 17 18 17 95 l0 89 90 0 90 0 0 -180 0
-179 -92 -3 -93 -3 -3 -92 -3 -93 -179 0 -180 0 0 275 0 275 85 0 85 0 0 -84z
m1120 -191 l0 -276 -87 3 -88 3 -3 273 -2 272 90 0 90 0 0 -275z m-2050 0 l0
-85 -85 0 -85 0 0 85 0 85 85 0 85 0 0 -85z m190 -185 l0 -91 -87 3 -88 3 -3
88 -3 87 91 0 90 0 0 -90z m1490 0 l0 -90 -90 0 -90 0 0 90 0 90 90 0 90 0 0
-90z m182 -142 c1 -24 2 -63 2 -88 l1 -45 98 -3 97 -3 0 91 0 90 180 0 180 0
0 -180 0 -180 -90 0 -90 0 -2 -277 -3 -278 -87 -3 -88 -3 0 281 0 280 -185 0
-185 0 0 180 0 180 85 0 85 0 2 -42z m931 -221 c-1 -44 1 -85 4 -93 4 -11 27
-14 94 -14 l89 0 0 -90 0 -89 -92 -3 -92 -3 0 -180 -1 -180 -92 -3 -93 -3 0
-89 0 -89 -92 -3 -93 -3 -3 -92 -3 -93 -84 0 -85 0 0 180 0 179 88 3 87 3 3
277 2 277 93 3 92 3 3 93 3 93 86 -3 87 -3 -1 -78z m-4275 -194 l-3 -88 -87
-3 -88 -3 0 91 0 90 90 0 91 0 -3 -87z m3160 0 l-3 -88 -85 0 -85 0 -3 88 -3
87 91 0 91 0 -3 -87z m-3350 -191 l3 -92 279 0 280 0 0 -90 0 -90 -280 0 -280
0 0 -90 0 -90 -90 0 -90 0 0 90 0 90 -90 0 -90 0 0 90 0 90 90 0 90 0 0 88 c0
49 3 91 6 95 3 3 43 5 87 4 l82 -2 3 -93z m1302 -182 l0 -91 -87 3 -88 3 -1
80 c0 44 1 83 3 88 2 4 42 7 89 7 l84 0 0 -90z m3720 0 l0 -90 -85 0 -85 0 0
90 0 90 85 0 85 0 0 -90z m-180 -285 l0 -185 90 0 90 0 0 -90 0 -90 -90 0 -90
0 0 -95 0 -95 90 0 90 0 0 -90 0 -90 -185 0 -185 0 0 -90 0 -90 -90 0 -90 0 0
90 0 90 -90 0 -90 0 0 90 0 90 185 0 185 0 0 190 0 190 -185 0 -185 0 0 90 0
90 185 0 185 0 0 90 0 90 90 0 90 0 0 -185z m370 95 l0 -89 93 -3 92 -3 0 -85
0 -85 -182 -3 -183 -2 0 180 0 180 90 0 90 0 0 -90z m370 5 l0 -85 -90 0 -90
0 0 85 0 85 90 0 90 0 0 -85z m-5578 -377 l3 -93 93 -3 92 -3 0 -84 0 -84 -92
-3 -93 -3 0 -95 0 -95 93 -3 92 -3 0 -84 0 -84 -92 -3 -93 -3 -3 -92 -3 -93
-89 0 -89 0 -3 93 -3 92 -87 3 -88 3 0 84 0 85 90 0 90 0 0 190 0 190 -90 0
-90 0 0 90 0 90 180 0 179 0 3 -92z m3906 5 l-3 -88 -180 0 -180 0 -3 88 -3
87 186 0 186 0 -3 -87z m370 0 l-3 -88 -85 0 -85 0 -3 88 -3 87 91 0 91 0 -3
-87z m-3718 -373 l0 -90 -182 2 -183 3 -2 75 c-2 41 -1 81 2 88 3 9 50 12 185
12 l180 0 0 -90z m4650 -190 l0 -89 93 -3 92 -3 3 -87 3 -88 -96 0 -95 0 0
-95 0 -95 -272 2 -273 3 -3 88 -3 87 186 0 185 0 0 185 0 185 90 0 90 0 0 -90z
m370 5 l0 -85 -90 0 -90 0 0 85 0 85 90 0 90 0 0 -85z m-1115 -185 l0 -85 -87
-3 -88 -3 0 91 0 91 88 -3 87 -3 0 -85z m-4280 -190 l0 -85 -87 -3 -88 -3 0
91 0 91 88 -3 87 -3 0 -85z m4093 3 l-3 -88 -92 -3 -93 -3 0 -184 0 -185 -90
0 -90 0 0 -95 0 -95 90 0 89 0 3 -92 3 -93 93 -3 92 -3 0 -179 0 -180 -90 0
-90 0 0 90 0 90 -90 0 -89 0 -3 93 -3 92 -95 0 -95 0 -3 -93 -3 -93 -87 3 -87
3 -3 272 -2 272 92 3 93 3 3 92 3 92 92 3 92 3 0 90 0 90 -92 3 -93 3 0 89 0
90 275 0 276 0 -3 -87z m1302 -93 l0 -180 -90 0 -90 0 0 173 c0 96 3 177 7
180 3 4 44 7 90 7 l83 0 0 -180z m-1860 -95 l0 -85 -90 0 -90 0 0 85 0 85 90
0 90 0 0 -85z m1118 -188 l3 -87 -183 2 -183 3 -3 74 c-2 41 -1 80 2 88 5 11
40 13 183 11 l178 -3 3 -88z m557 -90 l0 -178 -180 0 -180 0 -3 181 -2 180
182 -2 183 -3 0 -178z m-4095 -92 l0 -85 -87 0 -88 0 2 82 c1 46 2 84 2 86 1
1 39 2 86 2 l85 0 0 -85z m1120 0 l0 -85 -90 0 -90 0 0 85 0 85 90 0 90 0 0
-85z m560 0 l0 -84 -92 -3 -93 -3 -3 -92 -3 -93 -179 0 -180 0 0 90 0 90 90 0
90 0 0 90 0 90 185 0 185 0 0 -85z m1300 0 l0 -85 -60 -1 c-33 -1 -72 -2 -87
-3 l-28 -1 -3 88 -3 87 91 0 90 0 0 -85z m-3722 -187 l3 -88 -91 0 -90 0 0 83
c0 46 3 87 7 91 4 4 43 5 88 4 l80 -3 3 -87z m1112 2 l0 -90 -85 0 -85 0 0 90
0 90 85 0 85 0 0 -90z m560 0 l0 -90 -90 0 -89 0 -3 -92 -3 -93 -92 -3 -93 -3
0 -89 0 -90 -90 0 -90 0 0 180 0 179 93 3 92 3 3 93 3 92 179 0 180 0 0 -90z
m2790 0 l0 -90 -85 0 -85 0 0 90 0 90 85 0 85 0 0 -90z m560 -185 l0 -275
-365 0 -365 0 0 85 0 84 88 3 87 3 3 93 3 92 89 0 89 0 3 -92 3 -93 90 0 90 0
3 175 c1 96 4 181 7 188 3 8 31 12 90 12 l85 0 0 -275z m-5210 -5 l0 -91 -87
3 -87 3 0 83 c-1 46 1 86 3 88 2 2 42 4 88 4 l83 0 0 -90z m370 0 l0 -90 -85
0 -85 0 0 90 0 90 85 0 85 0 0 -90z m378 -92 l2 -178 -90 0 -90 0 0 180 0 181
88 -3 87 -3 3 -177z m1864 90 l3 -93 90 0 90 0 3 93 3 92 89 0 90 0 0 -180 0
-180 -185 0 -184 0 -3 -92 -3 -93 -87 -3 -87 -3 -3 93 -3 93 -92 3 -93 3 0 84
0 84 93 3 92 3 3 93 3 92 89 0 89 0 3 -92z m1856 5 l-3 -88 -180 0 -180 0 -3
74 c-2 41 -1 80 2 88 4 10 44 13 186 13 l181 0 -3 -87z m-4648 -188 l0 -85
-90 0 -90 0 0 85 0 85 90 0 90 0 0 -85z m2230 0 l0 -85 -180 0 -180 0 0 85 0
85 180 0 180 0 0 -85z m-1490 -185 l0 -90 -90 0 -90 0 0 83 c0 46 3 87 7 90 3
4 44 7 90 7 l83 0 0 -90z m1674 -5 l1 -90 93 -3 92 -3 0 -89 0 -90 278 -2 277
-3 3 -182 2 -183 -90 0 -90 0 0 95 0 95 -187 -2 -188 -3 0 -95 0 -95 183 -3
182 -2 0 -180 0 -180 -85 0 -84 0 -3 93 -3 92 -187 3 -188 2 0 90 0 90 -90 0
-90 0 0 90 0 90 90 0 91 0 -3 98 -3 97 -70 2 c-38 0 -78 2 -87 2 -16 1 -18 17
-18 181 l0 181 86 -3 86 -3 2 -90z m-1864 -180 c0 -83 -1 -85 -24 -85 -12 0
-51 -3 -85 -6 l-61 -7 0 92 0 91 85 0 85 0 0 -85z m380 -5 l0 -90 90 0 90 0 0
-90 0 -90 -180 0 -180 0 0 180 0 180 90 0 90 0 0 -90z m3718 -182 l-3 -273
-272 -3 -273 -2 0 275 0 275 275 0 275 0 -2 -272z m562 187 l0 -85 -57 -1
c-32 -1 -74 -2 -93 -3 l-35 -2 -3 -187 -2 -188 -88 3 -87 3 -3 273 -2 272 185
0 185 0 0 -85z m-4470 -465 l0 -180 -90 0 -90 0 0 180 0 180 90 0 90 0 0 -180z
m1488 -282 l-3 -273 -174 -3 c-99 -1 -177 2 -180 7 -3 5 -5 45 -3 90 l3 80 87
3 87 3 0 95 0 95 -88 5 c-48 3 -87 8 -87 13 0 4 0 41 0 82 l0 75 180 0 180 0
-2 -272z m2982 187 l0 -85 -90 0 -90 0 0 85 0 85 90 0 90 0 0 -85z m-1120
-185 l0 -90 -90 0 -90 0 0 90 0 90 90 0 90 0 0 -90z m372 -2 l3 -93 93 -3 92
-3 0 -179 0 -180 -275 0 -275 0 0 180 0 180 90 0 90 0 0 88 c0 49 3 92 7 95 3
4 44 7 89 7 l83 0 3 -92z m556 -90 l-3 -183 -85 0 -85 0 -3 183 -2 182 90 0
90 0 -2 -182z"/>
<path d="M6147 1858 c-15 -11 -17 -25 -13 -93 2 -44 5 -83 5 -87 1 -5 44 -8
96 -8 l96 0 -3 98 -3 97 -80 3 c-54 2 -86 -2 -98 -10z"/>
<path d="M3534 7437 c-3 -8 -4 -52 -2 -98 l3 -84 93 -3 93 -3 -3 -87 -3 -87
-92 -3 -93 -3 0 -95 0 -95 98 3 97 3 2 80 c1 44 2 86 2 93 1 8 25 12 86 12
l84 0 3 -92 3 -93 95 0 95 0 3 92 3 92 -93 3 -93 3 -3 87 -3 87 93 3 93 3 0
95 0 95 -95 0 -95 0 -3 -93 -3 -93 -86 3 -86 3 2 78 c1 49 -2 84 -10 93 -16
19 -177 20 -185 1z"/>
<path d="M6145 7440 c-8 -13 -8 -1288 0 -1301 4 -6 236 -9 645 -9 513 1 641 4
649 14 8 9 10 205 9 657 l-3 644 -647 3 c-435 1 -649 -1 -653 -8z m1105 -650
l0 -460 -460 0 -460 0 0 460 0 460 460 0 460 0 0 -460z"/>
<path d="M6510 6790 l0 -280 280 0 280 0 0 280 0 280 -280 0 -280 0 0 -280z"/>
<path d="M1674 5947 c-2 -8 -4 -52 -2 -98 l3 -84 92 -3 c107 -3 103 -8 100
113 l-2 80 -93 3 c-71 2 -94 0 -98 -11z"/>
<path d="M2797 5584 c-4 -4 -7 -49 -7 -101 l0 -93 95 0 96 0 -3 98 -3 97 -85
3 c-47 1 -89 0 -93 -4z"/>
<path d="M3720 5115 l0 -95 89 0 90 0 3 -52 3 -53 188 -3 187 -2 0 55 0 55 95
0 95 0 0 95 0 96 -97 -3 -98 -3 -3 -87 -3 -88 -179 0 -180 0 0 90 0 90 -95 0
-95 0 0 -95z"/>
<path d="M3825 4666 c-337 -53 -615 -280 -666 -544 -14 -77 -7 -198 17 -271
69 -210 283 -386 559 -461 114 -31 337 -39 459 -16 392 74 660 336 660 646 0
309 -278 577 -670 645 -102 18 -247 18 -359 1z m430 -61 c543 -138 741 -633
386 -967 -173 -164 -417 -247 -686 -235 -157 8 -263 35 -404 104 -98 48 -126
68 -196 137 -204 203 -229 457 -65 678 189 256 599 376 965 283z"/>
<path d="M3894 4594 c3 -9 6 -42 6 -75 0 -55 2 -59 23 -58 16 1 18 2 5 6 -15
4 -18 16 -18 74 0 44 -4 69 -11 69 -6 0 -8 -7 -5 -16z"/>
<path d="M4002 4598 c-14 -14 -16 -114 -3 -122 5 -4 7 11 4 33 -7 50 3 91 22
91 19 0 29 -41 22 -91 -3 -22 -1 -37 4 -33 12 7 11 91 -1 115 -12 22 -30 25
-48 7z"/>
<path d="M4094 4565 c-18 -43 -18 -53 0 -87 15 -28 15 -28 -19 -28 -19 0 -36
4 -39 9 -4 5 -22 5 -43 0 -21 -5 -56 -9 -79 -9 -22 0 -76 -9 -120 -21 -179
-46 -315 -143 -376 -267 -29 -59 -33 -76 -32 -147 1 -107 32 -172 121 -255
226 -212 650 -238 920 -57 79 53 116 92 159 171 26 45 29 61 29 141 0 78 -4
97 -28 146 -35 73 -123 159 -202 200 l-62 33 16 27 c15 26 14 30 -8 59 -13 18
-21 40 -18 51 3 10 1 17 -4 13 -15 -9 -10 -45 11 -71 24 -31 25 -37 5 -57 -13
-12 -22 -13 -58 -2 l-42 12 3 65 c2 35 8 70 14 77 8 9 6 12 -5 12 -11 0 -17
-18 -23 -67 -4 -38 -7 -70 -7 -73 1 -3 -16 -4 -38 -2 -21 2 -39 8 -39 13 0 5
4 9 9 9 5 0 11 14 13 30 3 17 1 30 -3 30 -4 0 -9 -12 -11 -27 -2 -17 -9 -28
-18 -28 -23 0 -26 97 -5 119 9 9 11 16 5 16 -6 0 -18 -16 -26 -35z m116 -170
c223 -58 380 -210 380 -369 0 -86 -26 -150 -86 -215 -63 -68 -152 -123 -259
-158 -72 -24 -95 -27 -235 -27 -177 -1 -237 11 -359 72 -86 42 -176 124 -212
192 -33 65 -34 185 0 254 61 124 217 224 406 262 89 17 277 12 365 -11z"/>
<path d="M3560 4136 c0 -9 -13 -16 -32 -19 l-33 -4 31 -1 c19 -1 34 -9 38 -18
4 -12 2 -15 -9 -10 -12 4 -15 -4 -15 -46 0 -41 3 -49 12 -40 17 17 38 15 38
-4 0 -13 -8 -15 -40 -12 l-40 4 0 -58 c0 -32 4 -58 10 -58 6 0 10 23 10 50 0
49 1 50 30 50 20 0 30 -5 30 -15 0 -9 -9 -15 -25 -15 -14 0 -25 -4 -25 -9 0
-18 20 -22 57 -12 23 7 41 7 48 1 7 -6 15 -7 18 -3 4 3 7 1 7 -5 0 -7 -5 -12
-12 -12 -8 0 -6 -6 5 -17 22 -23 28 -15 30 48 l2 53 -42 -3 c-34 -2 -43 1 -43
13 0 9 8 16 20 16 11 0 20 -5 20 -11 0 -5 5 -7 10 -4 6 3 10 27 10 52 0 36 -3
44 -15 39 -9 -3 -15 0 -15 9 0 10 11 15 35 15 33 0 43 8 28 23 -3 4 -12 2 -19
-4 -16 -13 -48 -4 -39 11 3 5 -1 10 -9 10 -9 0 -16 -7 -16 -15 0 -8 -7 -15
-15 -15 -8 0 -15 7 -15 15 0 8 -7 15 -15 15 -8 0 -15 -6 -15 -14z m64 -41 c4
-11 -1 -15 -19 -15 -18 0 -23 4 -19 15 4 8 12 15 19 15 7 0 15 -7 19 -15z
m-34 -35 c0 -5 -7 -10 -15 -10 -8 0 -15 5 -15 10 0 6 7 10 15 10 8 0 15 -4 15
-10z m60 0 c0 -5 -9 -10 -20 -10 -11 0 -20 5 -20 10 0 6 9 10 20 10 11 0 20
-4 20 -10z m-60 -30 c0 -5 -7 -10 -15 -10 -8 0 -15 5 -15 10 0 6 7 10 15 10 8
0 15 -4 15 -10z m60 0 c0 -5 -9 -10 -20 -10 -11 0 -20 5 -20 10 0 6 9 10 20
10 11 0 20 -4 20 -10z m20 -82 c0 -20 -1 -21 -20 -3 -11 10 -20 13 -20 7 0 -7
-4 -12 -10 -12 -5 0 -10 7 -10 15 0 10 10 15 30 15 24 0 30 -4 30 -22z"/>
<path d="M3810 4068 c0 -45 4 -78 10 -78 6 0 10 5 10 10 0 6 9 10 20 10 15 0
20 -7 20 -24 0 -22 -5 -25 -47 -29 l-48 -3 48 -2 c43 -2 47 -4 47 -26 0 -23
-4 -25 -52 -29 -29 -2 -5 -4 55 -5 59 -1 107 2 107 7 0 5 -20 6 -45 3 -43 -4
-45 -4 -45 22 0 24 3 26 40 26 32 0 38 3 33 16 -4 11 -9 12 -16 5 -6 -6 -21
-11 -34 -11 -18 0 -23 6 -23 25 0 26 18 33 37 14 6 -6 13 -7 16 -2 8 12 12
132 4 139 -3 3 -35 7 -71 8 l-66 1 0 -77z m58 34 c3 -17 -2 -22 -17 -22 -16 0
-21 6 -21 26 0 33 33 30 38 -4z m60 0 c3 -17 -2 -22 -17 -22 -16 0 -21 6 -21
26 0 33 33 30 38 -4z m-58 -57 c0 -18 -5 -25 -20 -25 -15 0 -20 7 -20 25 0 18
5 25 20 25 15 0 20 -7 20 -25z m55 0 c0 -11 -8 -21 -17 -23 -14 -3 -18 3 -18
23 0 20 4 26 18 23 9 -2 17 -12 17 -23z"/>
<path d="M4089 4113 c-2 -31 -3 -33 -6 -10 -5 30 -23 37 -23 8 0 -10 -2 -34
-5 -52 -5 -31 -4 -32 6 -11 17 31 29 28 29 -8 0 -19 -7 -34 -20 -42 -11 -7
-20 -18 -20 -25 0 -16 12 -17 28 -1 9 9 12 -1 12 -45 0 -31 5 -57 10 -57 6 0
10 30 10 70 0 54 4 72 15 76 9 4 22 18 30 33 12 23 14 24 15 6 0 -12 -9 -38
-19 -58 -15 -30 -16 -35 -4 -25 9 7 25 32 35 56 11 24 22 42 24 40 9 -10 -28
-107 -50 -131 -14 -15 -21 -27 -17 -27 17 0 69 69 76 99 4 17 11 34 17 37 8 5
9 -1 5 -17 -4 -13 -7 -44 -7 -67 0 -35 -4 -45 -19 -49 -22 -6 -18 -33 5 -33
23 0 34 37 37 122 l2 82 -44 -3 c-46 -3 -45 -5 -24 45 2 6 -3 14 -11 17 -11 4
-16 -4 -21 -32 -5 -33 -10 -38 -27 -33 -16 4 -19 11 -16 38 3 23 0 34 -9 34
-8 0 -14 -14 -14 -37z m51 -62 c0 -10 -7 -21 -15 -25 -15 -5 -22 24 -8 37 12
13 23 7 23 -12z"/>
<path d="M4436 4125 c7 -26 5 -27 -25 -23 -17 2 -31 1 -31 -4 0 -4 12 -8 27
-8 l26 0 -21 -23 c-27 -29 -28 -47 -2 -47 18 0 20 -7 20 -70 0 -38 4 -70 9
-70 13 0 18 129 7 141 -6 5 2 9 22 9 18 0 32 -4 32 -10 0 -5 -7 -10 -15 -10
-13 0 -15 -11 -13 -62 3 -54 6 -63 23 -66 32 -4 48 12 40 38 -6 20 -9 21 -17
7 -16 -30 -28 -18 -28 28 0 31 5 47 15 51 21 9 19 41 -4 54 -28 14 -36 12 -21
-5 11 -13 7 -15 -26 -15 l-37 0 23 25 c16 17 34 25 57 25 18 0 33 5 33 10 0 7
-13 8 -34 4 -30 -5 -35 -3 -38 17 -2 12 -9 24 -16 27 -9 3 -11 -3 -6 -23z"/>
<path d="M4347 4121 c3 -12 10 -21 15 -21 13 0 6 32 -9 37 -7 3 -9 -3 -6 -16z"/>
<path d="M4351 4006 c-12 -41 -21 -84 -19 -97 4 -33 42 -37 62 -7 19 29 32
108 19 108 -6 0 -13 -22 -17 -49 -3 -27 -13 -54 -21 -61 -13 -11 -15 -6 -15
36 0 27 5 69 11 93 16 70 5 57 -20 -23z"/>
<path d="M4320 4063 c0 -5 4 -15 10 -23 11 -18 25 -7 17 15 -6 15 -27 21 -27
8z"/>
<path d="M3738 4575 c-6 -6 19 -136 28 -144 3 -3 2 19 -2 49 -5 30 -8 65 -9
78 0 21 -6 27 -17 17z"/>
<path d="M4351 4524 c0 -11 3 -14 6 -6 3 7 2 16 -1 19 -3 4 -6 -2 -5 -13z"/>
<path d="M3629 4460 c9 -38 20 -70 24 -70 5 0 6 8 4 18 -3 9 -11 41 -17 70 -7
28 -15 52 -19 52 -4 0 -1 -31 8 -70z"/>
<path d="M4400 4510 c0 -5 5 -10 10 -10 6 0 10 5 10 10 0 6 -4 10 -10 10 -5 0
-10 -4 -10 -10z"/>
<path d="M4414 4452 c-9 -31 -22 -63 -27 -69 -6 -9 -6 -13 1 -13 9 0 31 51 48
109 3 11 7 11 19 1 8 -7 15 -8 15 -4 0 5 -9 15 -19 21 -18 11 -21 7 -37 -45z"/>
<path d="M3510 4473 c0 -5 23 -27 50 -51 62 -54 66 -44 5 15 -46 43 -55 49
-55 36z"/>
<path d="M4281 4434 c0 -11 3 -14 6 -6 3 7 2 16 -1 19 -3 4 -6 -2 -5 -13z"/>
<path d="M4502 4374 c-18 -35 -28 -64 -24 -64 10 0 71 120 63 125 -4 2 -22
-25 -39 -61z"/>
<path d="M3690 4419 c0 -5 5 -7 10 -4 6 3 10 8 10 11 0 2 -4 4 -10 4 -5 0 -10
-5 -10 -11z"/>
<path d="M3443 4396 c0 -17 3 -23 7 -16 5 8 17 -2 36 -29 27 -38 45 -51 44
-33 -1 4 -20 29 -44 56 -42 48 -43 49 -43 22z"/>
<path d="M3450 4351 c0 -6 4 -13 10 -16 6 -3 7 1 4 9 -7 18 -14 21 -14 7z"/>
<path d="M4575 4336 c-34 -34 -42 -73 -19 -94 16 -15 16 -15 6 -1 -9 11 -9 24
-3 40 13 34 57 73 72 64 8 -5 10 -4 5 3 -11 19 -35 14 -61 -12z"/>
<path d="M3370 4341 c0 -6 4 -13 10 -16 6 -3 7 1 4 9 -7 18 -14 21 -14 7z"/>
<path d="M4641 4314 c0 -11 3 -14 6 -6 3 7 2 16 -1 19 -3 4 -6 -2 -5 -13z"/>
<path d="M3356 4298 c17 -22 84 -72 84 -62 0 12 -33 53 -40 49 -4 -2 -15 4
-25 15 -25 27 -40 25 -19 -2z"/>
<path d="M3325 4290 c-5 -8 84 -85 90 -78 2 2 -16 22 -41 44 -24 23 -47 38
-49 34z"/>
<path d="M3470 4279 c0 -5 5 -7 10 -4 6 3 10 8 10 11 0 2 -4 4 -10 4 -5 0 -10
-5 -10 -11z"/>
<path d="M4673 4233 c-7 -3 -13 -21 -13 -41 0 -41 -7 -56 -30 -65 -9 -4 -4 -6
10 -4 21 2 25 8 28 42 2 22 8 46 14 53 13 15 8 21 -9 15z"/>
<path d="M4600 4180 c0 -5 5 -10 10 -10 6 0 10 5 10 10 0 6 -4 10 -10 10 -5 0
-10 -4 -10 -10z"/>
<path d="M4706 4173 c-6 -14 -5 -15 5 -6 7 7 10 15 7 18 -3 3 -9 -2 -12 -12z"/>
<path d="M3491 3698 c0 -10 -8 -18 -17 -18 -13 0 -14 -3 -5 -14 6 -7 8 -22 4
-32 -6 -16 -4 -17 8 -7 12 10 18 10 29 0 10 -10 12 -8 6 7 -3 10 -1 25 5 32 9
11 8 14 -4 14 -9 0 -18 8 -20 18 -4 16 -5 16 -6 0z"/>
<path d="M4500 3697 c0 -9 -7 -17 -16 -17 -13 0 -14 -3 -5 -14 6 -7 8 -22 4
-32 -6 -16 -5 -17 9 -6 13 10 18 10 24 0 5 -8 10 -3 15 16 6 21 3 33 -12 49
-16 18 -19 18 -19 4z"/>
<path d="M4290 3587 c0 -9 -6 -17 -14 -17 -11 0 -12 -5 -3 -23 6 -12 18 -23
28 -23 25 0 29 37 7 60 -16 17 -18 18 -18 3z"/>
<path d="M3730 3578 c0 -10 -7 -18 -16 -18 -13 0 -14 -3 -4 -15 6 -8 9 -18 6
-23 -3 -5 6 -9 19 -9 17 0 25 5 25 17 0 10 6 21 13 23 7 3 5 6 -5 6 -9 1 -22
9 -27 19 -10 16 -10 16 -11 0z"/>
<path d="M4000 3535 c0 -8 -6 -15 -14 -15 -11 0 -12 -5 -3 -24 7 -14 14 -23
16 -20 2 2 10 -1 16 -6 21 -18 24 42 3 63 -15 14 -18 14 -18 2z"/>
<path d="M2790 3820 l0 -89 -92 -3 -93 -3 -3 -97 -3 -98 246 0 246 0 -3 98 -3
97 -52 3 -53 3 0 90 0 89 -95 0 -95 0 0 -90z"/>
<path d="M4910 3815 l0 -95 150 0 150 0 0 95 0 95 -150 0 -150 0 0 -95z"/>
<path d="M557 2604 c-12 -13 -8 -169 5 -182 7 -7 44 -12 95 -12 l83 0 0 -85 0
-84 -92 -3 -93 -3 0 -95 0 -95 188 -3 c122 -2 187 1 187 8 0 5 1 90 1 188 l0
177 -90 3 -90 3 -3 92 -3 92 -90 3 c-50 1 -94 0 -98 -4z"/>
<path d="M5390 1955 l0 -96 98 3 97 3 0 90 0 90 -97 3 -98 3 0 -96z"/>
<path d="M1160 1860 l-605 -5 0 -650 0 -650 644 -3 c476 -1 647 1 658 9 11 10
13 116 13 648 -1 429 -5 640 -12 648 -6 8 -28 12 -52 11 -22 -2 -313 -5 -646
-8z m510 -650 l0 -460 -460 0 -460 0 0 460 0 460 460 0 460 0 0 -460z"/>
<path d="M930 1210 l0 -280 280 0 280 0 0 280 0 280 -280 0 -280 0 0 -280z"/>
<path d="M3160 1025 l0 -95 95 0 95 0 0 95 0 95 -95 0 -95 0 0 -95z"/>
<path d="M4652 653 l3 -98 185 0 185 0 0 95 0 95 -188 3 -188 2 3 -97z"/>
<path d="M7069 738 c-3 -81 1 -172 8 -179 5 -5 90 -8 189 -7 l179 3 0 95 0 95
-187 3 c-147 2 -188 0 -189 -10z"/>
</g>
</svg>
